<mxfile host="app.diagrams.net" modified="2023-11-25T09:12:06.223Z" agent="Mozilla/5.0 (Windows NT 10.0; Win64; x64) AppleWebKit/537.36 (KHTML, like Gecko) Chrome/119.0.0.0 Safari/537.36" etag="BOMN0MCYvidrSFy5191G" version="22.1.4" type="github">
  <diagram id="kgpKYQtTHZ0yAKxKKP6v" name="Page-1">
    <mxGraphModel dx="749" dy="813" grid="1" gridSize="10" guides="1" tooltips="1" connect="1" arrows="1" fold="1" page="1" pageScale="1" pageWidth="850" pageHeight="1100" math="0" shadow="0">
      <root>
        <mxCell id="0" />
        <mxCell id="1" parent="0" />
        <mxCell id="5ltz1wqPYg8REpe3o894-33" value="Steering Wheel" style="swimlane;whiteSpace=wrap;html=1;" vertex="1" parent="1">
          <mxGeometry x="110" y="360" width="630" height="550" as="geometry" />
        </mxCell>
        <mxCell id="5ltz1wqPYg8REpe3o894-32" value="MCU&lt;br&gt;(Raspberry Pi Pico)" style="rounded=1;whiteSpace=wrap;html=1;" vertex="1" parent="5ltz1wqPYg8REpe3o894-33">
          <mxGeometry x="250" y="370" width="120" height="60" as="geometry" />
        </mxCell>
        <mxCell id="5ltz1wqPYg8REpe3o894-35" value="ECU" style="rounded=1;whiteSpace=wrap;html=1;" vertex="1" parent="5ltz1wqPYg8REpe3o894-33">
          <mxGeometry x="70" y="280" width="120" height="60" as="geometry" />
        </mxCell>
        <mxCell id="5ltz1wqPYg8REpe3o894-36" value="Battery" style="rounded=0;whiteSpace=wrap;html=1;" vertex="1" parent="5ltz1wqPYg8REpe3o894-33">
          <mxGeometry x="70" y="460" width="120" height="60" as="geometry" />
        </mxCell>
      </root>
    </mxGraphModel>
  </diagram>
</mxfile>
